<?xml version="1.0" encoding="UTF-8"?>
<svg xmlns="http://www.w3.org/2000/svg" xmlns:xlink="http://www.w3.org/1999/xlink" width="20px" height="20px" viewBox="0 0 20 20" version="1.1">
<g id="surface1">
<path style=" stroke:none;fill-rule:nonzero;fill:rgb(100%,100%,100%);fill-opacity:1;" d="M 18.566406 8.1875 C 19.019531 6.824219 18.863281 5.332031 18.136719 4.09375 C 17.046875 2.191406 14.851562 1.214844 12.710938 1.675781 C 11.757812 0.601562 10.386719 -0.0078125 8.953125 0 C 6.761719 -0.00390625 4.820312 1.40625 4.144531 3.488281 C 2.738281 3.777344 1.523438 4.65625 0.8125 5.90625 C -0.285156 7.800781 -0.0351562 10.1875 1.433594 11.8125 C 0.980469 13.175781 1.136719 14.667969 1.863281 15.90625 C 2.953125 17.808594 5.148438 18.785156 7.289062 18.324219 C 8.242188 19.398438 9.613281 20.007812 11.046875 20 C 13.238281 20.003906 15.183594 18.59375 15.855469 16.507812 C 17.261719 16.21875 18.476562 15.339844 19.1875 14.089844 C 20.285156 12.195312 20.035156 9.808594 18.566406 8.183594 Z M 11.046875 18.691406 C 10.171875 18.695312 9.324219 18.386719 8.648438 17.824219 C 8.679688 17.808594 8.734375 17.78125 8.765625 17.757812 L 12.75 15.457031 C 12.953125 15.34375 13.078125 15.125 13.078125 14.890625 L 13.078125 9.277344 L 14.761719 10.25 C 14.777344 10.257812 14.789062 10.273438 14.792969 10.296875 L 14.792969 14.945312 C 14.789062 17.011719 13.117188 18.6875 11.046875 18.691406 Z M 2.996094 15.253906 C 2.558594 14.496094 2.398438 13.605469 2.550781 12.742188 C 2.578125 12.757812 2.628906 12.792969 2.667969 12.8125 L 6.648438 15.113281 C 6.851562 15.230469 7.101562 15.230469 7.304688 15.113281 L 12.167969 12.304688 L 12.167969 14.25 C 12.167969 14.269531 12.15625 14.289062 12.140625 14.300781 L 8.117188 16.625 C 6.324219 17.65625 4.035156 17.042969 2.996094 15.253906 Z M 1.949219 6.558594 C 2.386719 5.800781 3.078125 5.21875 3.898438 4.917969 C 3.898438 4.953125 3.898438 5.011719 3.898438 5.054688 L 3.898438 9.65625 C 3.894531 9.890625 4.019531 10.105469 4.222656 10.222656 L 9.085938 13.027344 L 7.402344 14 C 7.386719 14.011719 7.363281 14.011719 7.34375 14.003906 L 3.320312 11.679688 C 1.53125 10.640625 0.917969 8.351562 1.949219 6.5625 Z M 15.777344 9.777344 L 10.914062 6.96875 L 12.597656 6 C 12.613281 5.988281 12.636719 5.984375 12.65625 5.996094 L 16.679688 8.320312 C 18.472656 9.355469 19.089844 11.648438 18.050781 13.441406 C 17.613281 14.199219 16.925781 14.78125 16.101562 15.082031 L 16.101562 10.34375 C 16.105469 10.109375 15.980469 9.894531 15.777344 9.777344 Z M 17.453125 7.257812 C 17.421875 7.238281 17.371094 7.207031 17.332031 7.1875 L 13.351562 4.886719 C 13.148438 4.769531 12.898438 4.769531 12.695312 4.886719 L 7.835938 7.695312 L 7.835938 5.75 C 7.832031 5.730469 7.84375 5.710938 7.859375 5.699219 L 11.882812 3.375 C 13.675781 2.339844 15.96875 2.957031 17.003906 4.75 C 17.441406 5.507812 17.597656 6.394531 17.449219 7.257812 Z M 6.921875 10.722656 L 5.234375 9.75 C 5.21875 9.742188 5.207031 9.722656 5.203125 9.703125 L 5.203125 5.054688 C 5.203125 2.984375 6.882812 1.304688 8.953125 1.308594 C 9.828125 1.308594 10.675781 1.613281 11.351562 2.175781 C 11.320312 2.191406 11.265625 2.21875 11.234375 2.242188 L 7.25 4.542969 C 7.046875 4.65625 6.921875 4.875 6.921875 5.109375 Z M 7.835938 8.75 L 10 7.5 L 12.164062 8.75 L 12.164062 11.25 L 10 12.5 L 7.835938 11.25 Z M 7.835938 8.75 "/>
</g>
</svg>
